<svg width="30" height="30" viewBox="0 0 30 30" fill="none" xmlns="http://www.w3.org/2000/svg">
<g id="basket-svgrepo-com 1" clip-path="url(#clip0_102_16)">
<path id="Vector" d="M29.7553 8.32031C29.581 8.07281 29.2969 7.92468 28.9941 7.92468H9.09753L7.59097 2.73093C7.00035 0.685309 5.59691 0.464996 5.02128 0.464996H1.00503C0.490347 0.464996 0.0740967 0.882184 0.0740967 1.39593C0.0740967 1.90968 0.491284 2.32687 1.00503 2.32687H5.02035C5.14785 2.32687 5.53503 2.32687 5.79941 3.24L10.981 22.2816C11.0935 22.6828 11.46 22.9603 11.8772 22.9603H24.5325C24.9253 22.9603 25.276 22.7147 25.4082 22.3444L29.8688 9.16968C29.9719 8.88468 29.9288 8.56687 29.7544 8.31937L29.7553 8.32031ZM23.8782 21.0994H12.585L9.6216 9.7875H27.6713L23.8782 21.0994ZM22.0313 24.8475C20.7366 24.8475 19.6875 25.8966 19.6875 27.1912C19.6875 28.4859 20.7366 29.535 22.0313 29.535C23.326 29.535 24.375 28.4859 24.375 27.1912C24.375 25.8966 23.326 24.8475 22.0313 24.8475ZM13.5938 24.8475C12.2991 24.8475 11.25 25.8966 11.25 27.1912C11.25 28.4859 12.2991 29.535 13.5938 29.535C14.8885 29.535 15.9375 28.4859 15.9375 27.1912C15.9375 25.8966 14.8885 24.8475 13.5938 24.8475Z" fill="black"/>
</g>
<defs>
<clipPath id="clip0_102_16">
<rect width="30" height="30" fill="white"/>
</clipPath>
</defs>
</svg>
