<svg width="30" height="30" viewBox="0 0 30 30" fill="none" xmlns="http://www.w3.org/2000/svg">
<path d="M22.945 12.0375H21.7325V9.98749C22.1424 9.37796 22.3601 8.65952 22.3575 7.92499C22.3595 7.82899 22.3554 7.73295 22.345 7.63749C22.2926 7.00583 22.0759 6.39886 21.7162 5.87694C21.3566 5.35503 20.8666 4.93633 20.295 4.66249C19.8289 4.43885 19.321 4.3155 18.8042 4.30043C18.2875 4.28536 17.7733 4.37889 17.295 4.57499C16.9308 3.96874 16.4159 3.46706 15.8004 3.11877C15.1849 2.77048 14.4897 2.58743 13.7825 2.58743C13.0752 2.58743 12.3801 2.77048 11.7645 3.11877C11.149 3.46706 10.6341 3.96874 10.27 4.57499C9.60654 4.29742 8.87554 4.22345 8.16996 4.36249C7.57129 4.46808 7.00933 4.72427 6.53698 5.10696C6.06464 5.48965 5.69744 5.98624 5.46996 6.54999C5.24215 7.11331 5.15717 7.72423 5.2226 8.32834C5.28802 8.93245 5.50183 9.51101 5.84496 10.0125V24.2875C5.84496 25.1163 6.1742 25.9111 6.76025 26.4972C7.34631 27.0833 8.14116 27.4125 8.96996 27.4125H18.6075C19.0178 27.4125 19.4242 27.3317 19.8033 27.1746C20.1825 27.0176 20.527 26.7874 20.8172 26.4972C21.1074 26.207 21.3375 25.8625 21.4946 25.4834C21.6516 25.1042 21.7325 24.6979 21.7325 24.2875V23.05L22.87 22.6C23.439 22.3755 23.9271 21.9846 24.2705 21.4784C24.6139 20.9722 24.7967 20.3742 24.795 19.7625V13.875C24.7913 13.3866 24.5949 12.9195 24.2484 12.5753C23.9018 12.2311 23.4334 12.0378 22.945 12.0375ZM20.4825 24.2875C20.4825 24.7848 20.2849 25.2617 19.9333 25.6133C19.5817 25.9649 19.1047 26.1625 18.6075 26.1625H8.96996C8.47268 26.1625 7.99577 25.9649 7.64414 25.6133C7.29251 25.2617 7.09496 24.7848 7.09496 24.2875V14.175C7.75556 14.7735 8.61606 15.1034 9.50746 15.1C9.66996 15.1 9.81996 15.0875 9.96996 15.075V23C9.96996 23.1658 10.0358 23.3247 10.153 23.4419C10.2702 23.5591 10.4292 23.625 10.595 23.625C10.7607 23.625 10.9197 23.5591 11.0369 23.4419C11.1541 23.3247 11.22 23.1658 11.22 23V14.775C11.222 14.7453 11.2177 14.7155 11.2075 14.6875C11.774 14.3902 12.2531 13.9501 12.5973 13.4108C12.9416 12.8714 13.1389 12.2516 13.17 11.6125H18.695C19.3221 11.6137 19.9386 11.4499 20.4825 11.1375V24.2875ZM20.47 9.57499C20.2439 9.82093 19.9697 10.0178 19.6643 10.1532C19.359 10.2887 19.029 10.3599 18.695 10.3625H12.9325C12.7058 10.3588 12.4846 10.4323 12.3052 10.5709C12.1258 10.7094 11.9988 10.9048 11.945 11.125C11.9298 11.2075 11.9215 11.2911 11.92 11.375C11.928 11.8309 11.8096 12.2801 11.578 12.6729C11.3463 13.0656 11.0104 13.3865 10.6075 13.6C10.2398 13.7841 9.83117 13.8714 9.42033 13.8536C9.00949 13.8359 8.60997 13.7135 8.25957 13.4983C7.90917 13.2831 7.61947 12.982 7.41787 12.6236C7.21627 12.2651 7.10943 11.8612 7.10746 11.45C7.10662 11.1174 7.17918 10.7888 7.31996 10.4875C7.38401 10.3464 7.40277 10.1889 7.37367 10.0367C7.34457 9.88448 7.26904 9.74503 7.15746 9.63749C6.82144 9.29742 6.59349 8.86556 6.5023 8.39626C6.41111 7.92695 6.46074 7.44116 6.64496 6.99999C6.79417 6.63627 7.03279 6.3161 7.33871 6.06918C7.64463 5.82226 8.00794 5.65657 8.39496 5.58749C8.55213 5.56307 8.71091 5.55053 8.86996 5.54999C9.24291 5.54817 9.61109 5.6338 9.94496 5.79999C10.0567 5.86088 10.1795 5.89888 10.3062 5.91176C10.4328 5.92464 10.5607 5.91214 10.6825 5.87499C10.9254 5.79506 11.1285 5.62507 11.25 5.39999C11.4867 4.93003 11.8493 4.53504 12.2973 4.25906C12.7454 3.98308 13.2612 3.83694 13.7875 3.83694C14.3137 3.83694 14.8296 3.98308 15.2776 4.25906C15.7256 4.53504 16.0882 4.93003 16.325 5.39999C16.3805 5.51175 16.4577 5.61131 16.5521 5.69287C16.6466 5.77443 16.7563 5.83634 16.875 5.87499C17.1197 5.94925 17.3837 5.92688 17.6125 5.81249C17.9624 5.6317 18.3515 5.53994 18.7453 5.54535C19.1391 5.55076 19.5255 5.65316 19.8704 5.84349C20.2152 6.03383 20.5078 6.30622 20.7223 6.63658C20.9367 6.96693 21.0664 7.34506 21.1 7.73749C21.1315 8.07095 21.0916 8.4073 20.983 8.72414C20.8744 9.04099 20.6995 9.33104 20.47 9.57499ZM23.545 19.7625C23.5463 20.1255 23.437 20.4803 23.2315 20.7796C23.0261 21.0788 22.7342 21.3084 22.395 21.4375L21.745 21.7125V13.2875H22.945C23.1021 13.2868 23.2533 13.3481 23.3656 13.4581C23.4779 13.568 23.5423 13.7178 23.545 13.875V19.7625Z" fill="black"/>
<path d="M16.9712 23.625C16.8054 23.625 16.6465 23.5591 16.5293 23.4419C16.412 23.3247 16.3462 23.1658 16.3462 23V14.775C16.3462 14.6092 16.412 14.4503 16.5293 14.3331C16.6465 14.2158 16.8054 14.15 16.9712 14.15C17.137 14.15 17.2959 14.2158 17.4131 14.3331C17.5303 14.4503 17.5962 14.6092 17.5962 14.775V23C17.5962 23.1658 17.5303 23.3247 17.4131 23.4419C17.2959 23.5591 17.137 23.625 16.9712 23.625Z" fill="black"/>
</svg>
