<svg width="30" height="30" viewBox="0 0 30 30" fill="none" xmlns="http://www.w3.org/2000/svg">
<g clip-path="url(#clip0_115_37)">
<path d="M23.5349 12.4833C26.2476 12.4529 28.4454 10.2378 28.4454 7.51807C28.4454 4.77941 26.2172 2.55144 23.4787 2.55144C20.9321 2.55144 18.8282 4.47827 18.5455 6.95031H11.3474L10.8625 2.71904C10.836 2.48808 10.6714 2.29648 10.447 2.23569L2.27124 0.0198279C1.96866 -0.0623083 1.65677 0.11665 1.57471 0.419305C1.49272 0.72196 1.67153 1.03377 1.97418 1.11584L9.77826 3.23094L10.2045 6.95031H5.9903C5.82951 6.95031 5.67629 7.01844 5.56865 7.1379C5.461 7.25728 5.40899 7.4167 5.42557 7.57659L7.69662 29.4907C7.72659 29.78 7.97043 29.9999 8.26135 29.9999H21.2076C21.4985 29.9999 21.7424 29.7801 21.7723 29.4907L23.5175 12.6515C23.5175 12.6509 23.5176 12.6502 23.5176 12.6495L23.5349 12.4833ZM23.4786 3.68704C25.5911 3.68704 27.3097 5.40569 27.3097 7.51814C27.3097 9.57223 25.6846 11.2534 23.6527 11.3449L24.0432 7.57666C24.0598 7.41678 24.0078 7.25735 23.9002 7.13797C23.7925 7.01859 23.6393 6.95038 23.4785 6.95038H19.6897C19.965 5.10622 21.559 3.68704 23.4786 3.68704ZM22.849 8.08583L22.4408 12.0247H11.9287L11.4774 8.08583H22.849ZM10.3344 8.08583L10.7858 12.0247H7.02802L6.61984 8.08583H10.3344ZM20.6956 28.8646H8.77317L7.14566 13.1603H10.9158L12.1566 23.9883C12.1898 24.2778 12.4354 24.4914 12.72 24.4914C12.7416 24.4914 12.7634 24.4901 12.7854 24.4877C13.0969 24.452 13.3205 24.1705 13.2848 23.8589L12.0588 13.1603H22.3231L20.6956 28.8646Z" fill="black"/>
</g>
<defs>
<clipPath id="clip0_115_37">
<rect width="30" height="30" fill="white"/>
</clipPath>
</defs>
</svg>
