<svg width="129" height="91" viewBox="0 0 129 91" fill="none" xmlns="http://www.w3.org/2000/svg">
<g id="mexican-hat-svgrepo-com 1" opacity="0.9" clip-path="url(#clip0_109_72)">
<g id="Group">
<g id="Group_2">
<path id="Vector" d="M72.1885 22.7376L50.7837 35.0956C50.9045 35.6787 51.0294 36.2499 51.1578 36.8064L73.4687 23.9252C73.0563 23.5327 72.6273 23.1371 72.1885 22.7376Z" fill="#DC4437"/>
<path id="Vector_2" d="M70.8708 21.5723L50.4419 33.3669C50.5515 33.9514 50.6646 34.5287 50.7837 35.0957L72.1889 22.7374C71.7566 22.3512 71.3193 21.961 70.8708 21.5723Z" fill="#F2EFDC"/>
<path id="Vector_3" d="M53.3955 14.7908C48.7349 17.4816 49.0835 25.9733 50.4417 33.3666L70.8711 21.5718C65.1904 16.674 58.0566 12.0997 53.3955 14.7908Z" fill="#663F30"/>
<path id="Vector_4" d="M60.0263 41.9661L60.2406 41.8423L61.4387 36.5634L66.6094 38.1653L66.8237 38.0416L68.0219 32.7627L73.1926 34.3645L73.4065 34.241L74.605 28.9619L79.7757 30.5637L79.8167 30.5401C79.8167 30.5401 77.197 27.4412 73.4692 23.9253L51.1579 36.8067C52.3094 41.81 53.6575 45.6431 53.6575 45.6431L54.856 40.364L60.0263 41.9661Z" fill="#663F30"/>
<path id="Vector_5" d="M54.8556 40.3642L53.6571 45.6433L60.0259 41.9663L54.8556 40.3642ZM55.308 41.1479L58.7061 42.2009L54.5209 44.6172L55.308 41.1479Z" fill="#F7C63B"/>
<path id="Vector_6" d="M60.2407 41.8423L66.6091 38.1655L61.4384 36.5637L60.2407 41.8423ZM61.1033 40.8169L61.8912 37.3471L65.2893 38.4001L61.1033 40.8169Z" fill="#F7C63B"/>
<path id="Vector_7" d="M66.8238 38.0416L73.1926 34.3645L68.0219 32.7627L66.8238 38.0416ZM67.6868 37.0159L68.4744 33.5463L71.8729 34.5991L67.6868 37.0159Z" fill="#F7C63B"/>
<path id="Vector_8" d="M73.4065 34.241L79.7753 30.564L74.6046 28.9621L73.4065 34.241ZM74.2695 33.2154L75.057 29.7458L78.4551 30.7988L74.2695 33.2154Z" fill="#F7C63B"/>
<path id="Vector_9" d="M74.2695 33.2154L78.4555 30.7986L75.0574 29.7455L74.2695 33.2154Z" fill="#F2EFDC"/>
<path id="Vector_10" d="M67.6868 37.0159L71.8729 34.5991L68.474 33.5465L67.6868 37.0159Z" fill="#F2EFDC"/>
<path id="Vector_11" d="M61.1032 40.8169L65.2893 38.4001L61.8912 37.3471L61.1032 40.8169Z" fill="#F2EFDC"/>
<path id="Vector_12" d="M55.3081 41.1479L54.521 44.6172L58.7066 42.2007L55.3081 41.1479Z" fill="#F2EFDC"/>
<path id="Vector_13" d="M29.3219 66.8378L24.3138 69.7293L28.3802 70.9886L29.3219 66.8378Z" fill="#DC4437"/>
<path id="Vector_14" d="M37.1993 62.2898L32.1912 65.1813L36.2571 66.4409L37.1993 62.2898Z" fill="#DC4437"/>
<path id="Vector_15" d="M45.0763 57.7421L40.0681 60.6335L44.1341 61.8931L45.0763 57.7421Z" fill="#DC4437"/>
<path id="Vector_16" d="M52.9533 53.1943L47.9456 56.0855L52.0115 57.3451L52.9533 53.1943Z" fill="#DC4437"/>
<path id="Vector_17" d="M60.5725 48.7953L55.5643 51.6868L59.6307 52.9461L60.5725 48.7953Z" fill="#DC4437"/>
<path id="Vector_18" d="M68.4503 44.2471L63.4418 47.1388L67.5069 48.3988L68.4503 44.2471Z" fill="#DC4437"/>
<path id="Vector_19" d="M76.3269 39.6995L71.3187 42.591L75.3847 43.8506L76.3269 39.6995Z" fill="#DC4437"/>
<path id="Vector_20" d="M84.2034 35.152L79.1957 38.0432L83.2612 39.303L84.2034 35.152Z" fill="#DC4437"/>
<path id="Vector_21" d="M91.7682 30.7845L86.76 33.676L90.826 34.9356L91.7682 30.7845Z" fill="#DC4437"/>
<path id="Vector_22" d="M99.648 26.2351L94.637 29.1282L98.7034 30.3875L99.648 26.2351Z" fill="#DC4437"/>
<path id="Vector_23" d="M107.525 21.6871L102.514 24.5804L106.58 25.84L107.525 21.6871Z" fill="#DC4437"/>
<path id="Vector_24" d="M114.457 21.292L115.399 17.1414L110.391 20.0324L114.457 21.292Z" fill="#DC4437"/>
<path id="Vector_25" d="M114.998 22.2293L116.431 15.9263C116.429 15.9225 116.429 15.9178 116.427 15.9139L108.811 20.311L114.998 22.2293ZM114.457 21.292L110.391 20.0324L115.399 17.1412L114.457 21.292Z" fill="#F2EFDC"/>
<path id="Vector_26" d="M108.553 20.4598L100.934 24.8588L107.121 26.7771L108.553 20.4598ZM107.525 21.6871L106.58 25.8398L102.514 24.5802L107.525 21.6871Z" fill="#F2EFDC"/>
<path id="Vector_27" d="M100.676 25.0076L93.0601 29.4049L99.2443 31.3246L100.676 25.0076ZM99.6479 26.2351L98.7033 30.3875L94.6373 29.128L99.6479 26.2351Z" fill="#F2EFDC"/>
<path id="Vector_28" d="M91.3671 35.8729L92.7996 29.5556L85.2349 33.9231L85.2256 33.9666L91.3671 35.8729ZM91.7682 30.7845L90.826 34.9355L86.76 33.676L91.7682 30.7845Z" fill="#F2EFDC"/>
<path id="Vector_29" d="M85.2256 33.9666L85.1804 33.9546L77.6157 38.3221L83.8024 40.2403L85.2256 33.9666ZM84.2035 35.152L83.2613 39.303L79.1957 38.0432L84.2035 35.152Z" fill="#F2EFDC"/>
<path id="Vector_30" d="M77.3582 38.4704L69.739 42.8693L75.9257 44.7876L77.3582 38.4704ZM76.3269 39.6995L75.3851 43.8503L71.3192 42.5908L76.3269 39.6995Z" fill="#F2EFDC"/>
<path id="Vector_31" d="M69.4807 43.0184L61.8619 47.4171L68.0483 49.3356L69.4807 43.0184ZM68.4502 44.2471L67.5072 48.3986L63.4421 47.1386L68.4502 44.2471Z" fill="#F2EFDC"/>
<path id="Vector_32" d="M61.6042 47.5659L53.9841 51.9654L60.1717 53.8832L61.6042 47.5659ZM60.5724 48.7953L59.6307 52.9461L55.5647 51.6866L60.5724 48.7953Z" fill="#F2EFDC"/>
<path id="Vector_33" d="M53.9842 51.9654L46.365 56.3643L52.5525 58.2821L53.9842 51.9654ZM52.9533 53.1943L52.0115 57.3451L47.9455 56.0855L52.9533 53.1943Z" fill="#F2EFDC"/>
<path id="Vector_34" d="M46.1072 56.5131L38.4875 60.9123L44.6751 62.8301L46.1072 56.5131ZM45.0763 57.7421L44.1345 61.8929L40.0685 60.6333L45.0763 57.7421Z" fill="#F2EFDC"/>
<path id="Vector_35" d="M38.2302 61.0609L30.6115 65.4596L36.7986 67.3777L38.2302 61.0609ZM37.1993 62.2898L36.2576 66.4406L32.1916 65.1811L37.1993 62.2898Z" fill="#F2EFDC"/>
<path id="Vector_36" d="M30.3533 65.6087L22.7336 70.0079L28.9212 71.9257L30.3533 65.6087ZM29.3219 66.8379L28.3802 70.9886L24.3142 69.7291L29.3219 66.8379Z" fill="#F2EFDC"/>
<path id="Vector_37" d="M22.6853 70.0358L22.7336 70.0079L30.3532 65.6087L30.6114 65.4596L38.2306 61.0607L38.488 60.9121L46.1076 56.5129L46.3654 56.3641L53.9846 51.9651L61.6046 47.5657L61.8624 47.4169L69.4816 43.0179L69.7398 42.8689L77.359 38.4699L77.6164 38.3213L85.1811 33.9539L85.2356 33.9224L92.8003 29.5549L93.0609 29.4044L100.677 25.0071L100.935 24.8581L108.555 20.4591L108.812 20.3103L116.428 15.9132C116.317 15.4307 116.164 14.9606 115.97 14.5046L21.694 68.935C21.9919 69.3309 22.3232 69.6984 22.6853 70.0358Z" fill="#F7C63B"/>
<path id="Vector_38" d="M79.8163 30.5403L79.7753 30.564L73.4065 34.241L73.1926 34.3645L66.8238 38.0415L66.6094 38.1653L60.2406 41.8423L60.0263 41.9661L53.6575 45.6431L19.5385 65.3417L21.093 68.0342C21.2746 68.3487 21.4749 68.6493 21.694 68.935L115.969 14.5052C115.832 14.1725 115.671 13.8487 115.489 13.5345L113.935 10.8419L79.8163 30.5403Z" fill="#DC4437"/>
<path id="Vector_39" d="M108.811 20.311L108.553 20.4598L107.121 26.777L100.934 24.8587L100.676 25.0078L99.2439 31.3248L93.0597 29.4051L92.799 29.5556L91.3665 35.8728L85.225 33.9666L83.8018 40.2403L77.6151 38.322L77.3578 38.4706L75.9253 44.7879L69.7385 42.8696L69.4804 43.0186L68.0475 49.3361L61.8612 47.4176L61.6034 47.5664L60.1709 53.8837L53.9833 51.9658L52.5517 58.2826L46.3641 56.3648L46.1064 56.5136L44.6743 62.8306L38.4868 60.9128L38.2294 61.0614L36.7973 67.3784L30.6102 65.4603L30.352 65.6094L28.9199 71.9264L22.7324 70.0086L22.6852 70.0358C27.4802 74.5371 37.5345 74.23 46.7492 68.9099L103.42 36.1909C112.631 30.873 117.923 22.3273 116.431 15.9263L114.998 22.2293L108.811 20.311Z" fill="#109D59"/>
</g>
<g id="Group_3">
<path id="Vector_40" d="M72.1885 22.7376L66.7156 25.8974C67.2463 26.2241 67.7593 26.5684 68.2396 26.9443L73.4691 23.925C73.0563 23.5327 72.6273 23.1371 72.1885 22.7376Z" fill="#C43D31"/>
<path id="Vector_41" d="M70.8708 21.5723L65.0016 24.9608C65.5994 25.2457 66.1679 25.5604 66.7151 25.8976L72.1884 22.7376C71.7566 22.3512 71.3193 21.961 70.8708 21.5723Z" fill="#DAD8C6"/>
<path id="Vector_42" d="M53.3955 14.7908C50.9533 16.2008 49.8882 19.2047 49.6213 22.8074C55.5639 22.2652 60.8669 22.9899 65.0014 24.9606L70.8706 21.572C65.1903 16.674 58.0565 12.0997 53.3955 14.7908Z" fill="#4E3025"/>
<path id="Vector_43" d="M73.4687 23.9252L68.2392 26.9445C68.2479 26.951 68.2573 26.9569 68.2658 26.9639C70.5149 28.5245 71.2652 30.9495 70.9885 33.6816L73.1924 34.3643L73.4064 34.2407L74.6049 28.9616L79.7756 30.5635L79.8166 30.5398C79.8166 30.5398 77.1964 27.4412 73.4687 23.9252Z" fill="#4E3025"/>
<path id="Vector_44" d="M61.4387 36.5634L60.2406 41.8423L66.609 38.1655L61.4387 36.5634ZM61.8911 37.3471L65.2892 38.4001L61.1032 40.8169L61.8911 37.3471Z" fill="#DFB335"/>
<path id="Vector_45" d="M70.9884 33.6816C70.9675 33.8867 70.9424 34.0931 70.9107 34.3013L71.8724 34.5993L70.7236 35.2626C70.6763 35.4675 70.6259 35.6725 70.5688 35.8793L73.1917 34.365L70.9884 33.6816Z" fill="#DFB335"/>
<path id="Vector_46" d="M73.4065 34.241L79.7753 30.564L74.6046 28.9621L73.4065 34.241ZM74.2695 33.2154L75.057 29.7458L78.4551 30.7988L74.2695 33.2154Z" fill="#DFB335"/>
<path id="Vector_47" d="M74.2695 33.2154L78.4555 30.7986L75.0574 29.7455L74.2695 33.2154Z" fill="#DAD8C6"/>
<path id="Vector_48" d="M70.9111 34.301C70.862 34.6182 70.7982 34.9393 70.7245 35.2621L71.8732 34.5989L70.9111 34.301Z" fill="#DAD8C6"/>
<path id="Vector_49" d="M61.8912 37.3471L61.1032 40.8169L65.2893 38.4001L61.8912 37.3471Z" fill="#DAD8C6"/>
<path id="Vector_50" d="M107.525 21.6871L102.514 24.5804L106.58 25.84L107.525 21.6871Z" fill="#C43D31"/>
<path id="Vector_51" d="M114.457 21.292L115.399 17.1414L110.391 20.0324L114.457 21.292Z" fill="#C43D31"/>
<path id="Vector_52" d="M114.998 22.2293L116.431 15.9263C116.429 15.9225 116.429 15.9178 116.427 15.9139L108.811 20.311L114.998 22.2293ZM114.457 21.292L110.391 20.0324L115.399 17.1412L114.457 21.292Z" fill="#DAD8C6"/>
<path id="Vector_53" d="M108.553 20.4598L100.934 24.8587L107.121 26.777L108.553 20.4598ZM107.525 21.6871L106.58 25.8397L102.514 24.5802L107.525 21.6871Z" fill="#DAD8C6"/>
<path id="Vector_54" d="M99.7657 25.5334C99.9687 25.8726 100.151 26.2275 100.316 26.5943L100.676 25.0076L99.7657 25.5334Z" fill="#DAD8C6"/>
<path id="Vector_55" d="M98.9453 24.3338C99.24 24.7183 99.516 25.116 99.7657 25.5333L100.676 25.0076L100.935 24.8585L108.554 20.4595L108.812 20.3107L116.427 15.9137C116.316 15.4311 116.163 14.961 115.969 14.505L98.9453 24.3338Z" fill="#DFB335"/>
<path id="Vector_56" d="M96.0321 21.1781C97.0593 22.1982 98.0831 23.2076 98.9449 24.3341L115.969 14.5052C115.831 14.1725 115.671 13.8487 115.489 13.5344L113.935 10.8419L96.0321 21.1781Z" fill="#C43D31"/>
<path id="Vector_57" d="M114.998 22.2293L108.811 20.3112L108.554 20.4601L107.121 26.7773L100.934 24.859L100.676 25.0081L100.316 26.5948C100.349 26.6676 100.386 26.7365 100.417 26.8103C102.144 30.6723 100.768 35.1697 97.6522 39.5214L103.42 36.1912C112.631 30.8732 117.923 22.3275 116.431 15.9266L114.998 22.2293Z" fill="#0E854C"/>
</g>
</g>
</g>
<defs>
<clipPath id="clip0_109_72">
<rect width="109" height="68" fill="white" transform="translate(0 31.5) rotate(-30)"/>
</clipPath>
</defs>
</svg>
