<svg width="30" height="30" viewBox="0 0 30 30" fill="none" xmlns="http://www.w3.org/2000/svg">
<g clip-path="url(#clip0_109_54)">
<path d="M22.8602 7.40349H22.2653V6.36346C22.2653 6.25318 22.2215 6.14742 22.1435 6.06943C22.0655 5.99145 21.9598 5.94764 21.8495 5.94764H16.8054V2.81385L18.6878 0.998929C18.7044 0.983282 18.7176 0.964487 18.7268 0.943645C18.736 0.922804 18.741 0.900335 18.7414 0.877555C18.7418 0.854775 18.7377 0.832142 18.7292 0.810983C18.7208 0.789824 18.7082 0.770563 18.6922 0.75433L18.0132 0.0523329C17.9816 0.0196839 17.9383 0.000867893 17.8929 -1.11693e-05C17.8703 -0.00035142 17.8479 0.00379903 17.827 0.0121981C17.8061 0.0205971 17.7871 0.0330766 17.771 0.0489085L15.8358 1.91373C15.8194 1.9298 15.8063 1.94891 15.7971 1.96998L15.4977 2.67394C15.4889 2.69517 15.4842 2.71794 15.484 2.74096V5.94764H8.1505C8.04022 5.94764 7.93445 5.99145 7.85647 6.06943C7.77849 6.14742 7.73468 6.25318 7.73468 6.36346V7.40349H7.13982C7.02957 7.40362 6.92388 7.44747 6.84593 7.52543C6.76798 7.60338 6.72413 7.70907 6.724 7.81931V10.5099C6.724 10.6202 6.76781 10.7259 6.84579 10.8039C6.92377 10.8819 7.02953 10.9257 7.13982 10.9257H7.7156L9.45519 29.6228C9.46481 29.7259 9.51257 29.8217 9.58911 29.8915C9.66566 29.9613 9.76548 29.9999 9.86905 30H20.1309C20.2345 29.9999 20.3343 29.9613 20.4109 29.8915C20.4874 29.8217 20.5352 29.7259 20.5448 29.6228L22.2844 10.9238H22.8602C22.9704 10.9238 23.0762 10.8799 23.1542 10.802C23.2322 10.724 23.276 10.6182 23.276 10.5079V7.81735C23.2753 7.70745 23.2313 7.60226 23.1534 7.52473C23.0755 7.4472 22.9701 7.40362 22.8602 7.40349ZM15.8265 2.77618L16.0985 2.13631L17.8855 0.41336L18.3258 0.871248L16.5158 2.61768C16.4992 2.63341 16.4861 2.6523 16.477 2.67322C16.4679 2.69415 16.4631 2.71668 16.4629 2.73949V5.94618H15.827L15.8265 2.77618ZM8.56631 6.77928H21.4322V7.40349H8.56631V6.77928ZM20.6358 19.6657C17.7735 19.8218 16.4825 21.6455 15.2326 23.4125C13.97 25.1971 12.7724 26.8858 10.0496 27.0374L9.51487 21.2864C12.4124 21.1211 13.9832 19.2964 15.5041 17.5294C17.025 15.7624 18.4745 14.081 21.1705 13.9181L20.6358 19.6657ZM19.7518 29.1684H10.2462L10.0799 27.3789C12.9608 27.213 14.2562 25.3825 15.51 23.6121C16.7584 21.8475 17.9423 20.1774 20.6015 20.0135L19.7518 29.1684ZM21.2042 13.5723C18.3268 13.7278 16.7618 15.5457 15.2463 17.3063C13.7034 19.0982 12.2417 20.7938 9.48454 20.944L8.55066 10.9238H21.4488L21.2042 13.5723ZM22.4458 10.0921H7.55563V8.23317H22.4443L22.4458 10.0921Z" fill="#173156"/>
</g>
<defs>
<clipPath id="clip0_109_54">
<rect width="30" height="30" fill="white"/>
</clipPath>
</defs>
</svg>
